<?xml version="1.0" encoding="UTF-8" standalone="no"?>
<!-- Created with Inkscape (http://www.inkscape.org/) -->

<svg
   xmlns:dc="http://purl.org/dc/elements/1.1/"
   xmlns:cc="http://creativecommons.org/ns#"
   xmlns:rdf="http://www.w3.org/1999/02/22-rdf-syntax-ns#"
   xmlns:svg="http://www.w3.org/2000/svg"
   xmlns="http://www.w3.org/2000/svg"
   xmlns:sodipodi="http://sodipodi.sourceforge.net/DTD/sodipodi-0.dtd"
   xmlns:inkscape="http://www.inkscape.org/namespaces/inkscape"
   width="328.00348mm"
   height="225.77777mm"
   viewBox="0 0 1162.2171 799.99997"
   id="svg2"
   version="1.1"
   inkscape:version="0.91 r13725"
   sodipodi:docname="Retro car by Rones.svg">
  <defs
     id="defs4" />
  <sodipodi:namedview
     id="base"
     pagecolor="#ffffff"
     bordercolor="#666666"
     borderopacity="1.0"
     inkscape:pageopacity="0.0"
     inkscape:pageshadow="2"
     inkscape:zoom="0.35"
     inkscape:cx="-413.08966"
     inkscape:cy="371.54226"
     inkscape:document-units="px"
     inkscape:current-layer="layer1"
     showgrid="false"
     inkscape:window-width="1920"
     inkscape:window-height="1019"
     inkscape:window-x="1272"
     inkscape:window-y="-8"
     inkscape:window-maximized="1"
     fit-margin-top="0"
     fit-margin-left="0"
     fit-margin-right="0"
     fit-margin-bottom="0" />
  <metadata
     id="metadata7">
    <rdf:RDF>
      <cc:Work
         rdf:about="">
        <dc:format>image/svg+xml</dc:format>
        <dc:type
           rdf:resource="http://purl.org/dc/dcmitype/StillImage" />
        <dc:title></dc:title>
      </cc:Work>
    </rdf:RDF>
  </metadata>
  <g
     inkscape:label="Layer 1"
     inkscape:groupmode="layer"
     id="layer1"
     transform="translate(83.338909,-106.7616)">
    <path
       style="opacity:1;fill:#000000;fill-opacity:1;fill-rule:nonzero;stroke:none;stroke-width:0.54000002;stroke-linecap:round;stroke-linejoin:round;stroke-miterlimit:4;stroke-dasharray:none;stroke-dashoffset:0;stroke-opacity:1"
       d="m 463.27468,106.7616 0,45.03136 -475.055644,0 c -54.76392,175.7684 -30.05505,335.12413 177.482754,430.9054 64.0853,29.57603 131.03181,50.29152 145.69972,173.95196 l 386.75482,0 c 46.01815,-136.95631 135.98246,-186.0272 252.54176,-181.90095 6.3149,-18.86758 11.1846,-36.04599 14.3617,-51.67615 l 83.65021,39.31525 c 5.5624,-33.82046 5.8955,-67.6605 -2.6497,-101.5425 0,0 -54.73991,33.05787 -78.33031,46.36983 10.2461,-77.4046 -31.7929,-110.58415 -175.0924,-109.94918 -6.5069,16.27281 -12.4854,26.22986 -18.5412,37.08901 -11.5199,-25.47077 -29.19684,-30.4138 -47.68106,-32.67046 l -1.41361,-75.73536 c 56.32487,8.17067 108.66727,18.02282 131.21517,40.4149 l 7.0613,-98.0187 c -34.2344,15.4826 -57.87,32.40052 -138.57696,41.60302 l -2.39019,-128.13529 43.83625,0 0,-34.43934 -40.61973,0 C 701.21698,110.17001 559.28938,117.07704 463.27468,106.7616 Z m 31.78968,75.05214 201.62371,0 2.04194,130.67586 c -0.62693,0.0524 -1.17697,0.11539 -1.80973,0.16434 a 27.373159,27.373159 0 0 0 -27.01612,-23.10991 27.373159,27.373159 0 0 0 -27.37801,27.37112 27.373159,27.373159 0 0 0 27.37801,27.37112 27.373159,27.373159 0 0 0 26.88636,-22.32424 c 0.70057,0.0979 1.39595,0.1958 2.09655,0.29371 l 2.34921,150.15918 -109.27994,-71.71297 25.49317,-38.42083 a 6.993743,6.993743 0 0 0 -5.97548,-10.94027 6.993743,6.993743 0 0 0 -5.68185,3.20981 l -62.69155,94.48127 a 6.9938088,6.9938088 0 1 0 11.65733,7.73046 l 27.53511,-41.49393 119.27101,78.27559 1.01074,64.4332 c -18.06237,34.282 -35.50865,68.44092 -69.75974,105.96105 C 638.90354,565.071 614.01582,496.26085 507.42526,506.75845 L 495.06436,181.81409 Z M 34.397606,593.81625 c -35.4659203,0.48567 -72.33395,7.09549 -109.93554,17.63261 a 10.490614,10.490614 0 1 0 5.66156,20.20081 c 72.7308097,-20.38193 139.63465,-24.70852 197.409784,0.52587 57.77548,25.2344 108.08868,80.36616 146.66965,183.7723 a 10.490614,10.490614 0 0 0 9.82733,6.82206 l 434.43584,0 a 10.490614,10.490614 0 0 0 9.30813,-5.65422 c 29.22763,-56.28701 56.82383,-111.55828 104.65663,-146.63539 47.8328,-35.07746 116.7949,-51.79608 233.61821,-28.05434 a 10.490614,10.490614 0 1 0 4.1726,-20.5557 c -120.34831,-24.45817 -197.06281,-7.26752 -250.19251,31.69422 -51.3501,37.65649 -79.7927,93.91902 -107.90736,148.2263 l -421.07123,0 C 251.49315,699.45037 198.49952,640.27803 135.93346,612.95132 103.93049,598.97362 69.863526,593.33059 34.397606,593.81625 Z m 44.79254,69.23393 A 121.8547,121.8547 0 0 0 -42.669234,784.90921 121.8547,121.8547 0 0 0 79.190146,906.7616 121.8547,121.8547 0 0 0 201.04254,784.90921 121.8547,121.8547 0 0 0 79.190146,663.05018 Z m 835.299844,0 A 121.8547,121.8547 0 0 0 792.63759,784.90921 121.8547,121.8547 0 0 0 914.48999,906.7616 121.8547,121.8547 0 0 0 1036.3492,784.90921 121.8547,121.8547 0 0 0 914.48999,663.05018 Z m -835.299844,24.7281 a 97.130558,97.130558 0 0 1 59.795774,20.73333 l -46.083114,52.74153 a 27.373154,27.373154 0 0 0 -10.27768,-3.47589 l -4.71226,-69.95106 a 97.130558,97.130558 0 0 1 1.27728,-0.049 z m 835.299844,0 a 97.130558,97.130558 0 0 1 59.796,20.73333 l -46.0763,52.73454 a 27.373154,27.373154 0 0 0 -10.2778,-3.4689 l -4.7121,-69.95106 a 97.130558,97.130558 0 0 1 1.2702,-0.049 z m -847.039414,0.83322 4.70527,69.85527 a 27.373154,27.373154 0 0 0 -9.73817,4.82135 L 9.6897857,717.19837 A 97.130558,97.130558 0 0 1 67.450576,688.6115 Z m 835.306914,0 4.7053,69.84862 a 27.373154,27.373154 0 0 0 -9.7383,4.828 l -52.7347,-46.08975 a 97.130558,97.130558 0 0 1 57.7677,-28.58687 z M 146.901,715.4092 a 97.130558,97.130558 0 0 1 28.58686,57.76079 l -69.85526,4.70527 a 27.373154,27.373154 0 0 0 -4.82136,-9.73851 L 146.901,715.4092 Z m 835.29989,0 a 97.130558,97.130558 0 0 1 28.58681,57.76079 l -69.84841,4.70527 a 27.373154,27.373154 0 0 0 -4.8282,-9.73152 l 46.0898,-52.73454 z M 2.7925457,725.10645 55.533726,771.18956 a 27.373154,27.373154 0 0 0 -3.47589,10.27768 l -69.95107,4.71226 a 97.130558,97.130558 0 0 1 -0.049,-1.27029 97.130558,97.130558 0 0 1 20.7333297,-59.80276 z m 835.3066443,0 52.7346,46.07612 a 27.373154,27.373154 0 0 0 -3.4692,10.27767 l -69.9509,4.71227 a 97.130558,97.130558 0 0 1 -0.048,-1.27029 97.130558,97.130558 0 0 1 20.7333,-59.79577 z m -661.82601,58.51884 a 97.130558,97.130558 0 0 1 0.0489,1.27693 97.130558,97.130558 0 0 1 -20.73333,59.80276 l -52.74153,-46.08975 a 27.373154,27.373154 0 0 0 3.46925,-10.27803 l 69.95771,-4.71191 z m 835.29992,0 a 97.130558,97.130558 0 0 1 0.048,1.27693 97.130558,97.130558 0 0 1 -20.73331,59.79612 l -52.7346,-46.08311 a 27.373154,27.373154 0 0 0 3.4692,-10.27803 l 69.95091,-4.71191 z m -958.825404,8.31088 a 27.373154,27.373154 0 0 0 4.82136,9.73152 l -46.0901,52.73489 a 97.130558,97.130558 0 0 1 -28.58652,-57.76778 l 69.85526,-4.69863 z m 835.306694,0 a 27.373154,27.373154 0 0 0 4.8214,9.72488 l -46.0899,52.74818 a 97.130558,97.130558 0 0 1 -28.5869,-57.77443 l 69.8554,-4.69863 z m -792.105764,14.5805 52.748534,46.09674 a 97.130558,97.130558 0 0 1 -57.767794,28.58652 l -4.70527,-69.85526 a 27.373154,27.373154 0 0 0 9.72453,-4.828 z m 835.306864,0 52.7415,46.08975 a 97.130558,97.130558 0 0 1 -57.7677,28.59351 l -4.6985,-69.85526 a 27.373154,27.373154 0 0 0 9.7247,-4.828 z m -865.778354,2.04162 a 27.373154,27.373154 0 0 0 10.27768,3.46925 l 4.71226,69.95771 a 97.130558,97.130558 0 0 1 -1.27693,0.049 97.130558,97.130558 0 0 1 -59.80311,-20.73333 l 46.0901,-52.74153 z m 835.299954,0 a 27.373154,27.373154 0 0 0 10.2778,3.46925 l 4.7121,69.95771 a 97.130558,97.130558 0 0 1 -1.277,0.049 97.130558,97.130558 0 0 1 -59.796,-20.73333 l 46.0831,-52.74153 z"
       id="path4249"
       inkscape:connector-curvature="0" />
  </g>
</svg>
